<?xml version="1.0" encoding="UTF-8" standalone="no"?>
<!-- Created with Inkscape (http://www.inkscape.org/) -->

<svg
   xmlns:dc="http://purl.org/dc/elements/1.1/"
   xmlns:cc="http://creativecommons.org/ns#"
   xmlns:rdf="http://www.w3.org/1999/02/22-rdf-syntax-ns#"
   xmlns:svg="http://www.w3.org/2000/svg"
   xmlns="http://www.w3.org/2000/svg"
   xmlns:sodipodi="http://sodipodi.sourceforge.net/DTD/sodipodi-0.dtd"
   xmlns:inkscape="http://www.inkscape.org/namespaces/inkscape"
   width="55"
   height="55"
   id="svg2"
   version="1.1"
   inkscape:version="0.48.3.1 r9886"
   sodipodi:docname="lear.svg">
  <defs
     id="defs4" />
  <sodipodi:namedview
     id="base"
     pagecolor="#ffffff"
     bordercolor="#666666"
     borderopacity="1.0"
     inkscape:pageopacity="0.0"
     inkscape:pageshadow="2"
     inkscape:zoom="1"
     inkscape:cx="26.578625"
     inkscape:cy="28.169224"
     inkscape:document-units="px"
     inkscape:current-layer="layer3"
     showgrid="false"
     inkscape:window-width="1280"
     inkscape:window-height="741"
     inkscape:window-x="0"
     inkscape:window-y="27"
     inkscape:window-maximized="1"
     fit-margin-top="0"
     fit-margin-left="0"
     fit-margin-right="0"
     fit-margin-bottom="0" />
  <metadata
     id="metadata7">
    <rdf:RDF>
      <cc:Work
         rdf:about="">
        <dc:format>image/svg+xml</dc:format>
        <dc:type
           rdf:resource="http://purl.org/dc/dcmitype/StillImage" />
        <dc:title></dc:title>
      </cc:Work>
    </rdf:RDF>
  </metadata>
  <g
     inkscape:groupmode="layer"
     id="layer3"
     inkscape:label="Lear"
     transform="translate(-278.31805,1072.7348)">
    <path
       style="fill:#000000;stroke:#000000;stroke-width:1.20000005;stroke-linecap:round;stroke-linejoin:round;stroke-miterlimit:4;stroke-opacity:1;stroke-dasharray:none"
       d="m 303.46171,-1026.0369 c -2.59732,-1.2247 -4.14308,-4.1891 -3.9578,-7.011 0.0176,-1.2723 1.22547,-1.8303 0.89959,-0.1205 0.30466,1.7124 0.47702,4.8278 2.60159,4.6322 -0.14696,2.2076 3.71586,2.3779 5.34707,1.4675 2.1507,-0.8567 3.63424,-2.7452 5.13535,-4.445 1.39452,-2.4873 3.49968,-5.0987 3.41403,-8.056 -0.77634,-2.1452 -1.32277,-4.1908 -0.37369,-6.2685 -0.69625,-0.9253 -0.70283,-1.8081 0.32095,-0.7423 0.30005,2.3005 -0.0176,4.617 1.07679,6.732 0.34035,1.3499 -1.5972,4.079 -0.78305,4.3093 2.36596,-0.8693 3.52577,-3.631 3.9686,-5.527 0.79901,1.0551 1.57141,1.5921 2.51759,0.2684 1.62095,-0.6214 -0.57878,-2.4234 1.01351,-1.9587 2.44112,0.2784 3.68249,-2.2773 5.28075,-3.0804 2.30752,0.063 -0.85267,0.6199 -1.00456,1.815 -1.22588,1.8179 -3.46384,2.1315 -4.99468,3.5601 -2.76988,1.9824 -5.41393,4.1683 -7.50543,6.8929 -1.76292,1.974 -3.20245,4.2119 -4.86506,6.261 -1.40996,1.4505 0.65546,-1.6997 -0.9395,-0.5617 -1.33969,1.3476 -3.06669,2.16 -4.97001,2.1756 -0.73957,0.022 -1.48654,-0.086 -2.18204,-0.3429 z m -0.78295,-8.6673 c 0.19102,-1.1787 -1.32324,-2.7354 -1.41982,-0.737 -1.42763,-2.8697 3.38862,-1.1439 2.42107,0.9408 -0.32332,0.2271 -0.71457,-0.054 -1.00125,-0.2038 z m 2.14281,-0.4165 c -0.83433,-1.8992 2.90986,1.1973 0.55113,0.517 l -0.29345,-0.2389 -0.25768,-0.2781 z m -5.93392,-0.8831 c -0.28613,-1.5678 2.88765,-2.1743 0.88579,-0.3812 -0.16963,0.2083 -0.73594,1.107 -0.88579,0.3812 z m -2.15405,-0.4915 c 2.23179,-1.6641 2.89492,-4.7286 5.2362,-6.2873 -0.51484,-1.8088 -3.47581,-0.4262 -5.01114,-0.7987 -2.05174,0.6952 -0.45232,4.5459 -3.37865,4.6313 -2.97973,0.3945 -3.24819,-3.2739 -4.97551,-4.5996 -2.53513,0.8852 1.07457,5.8966 -2.49415,6.3578 -1.28408,-0.8089 -1.70199,-2.9316 -2.24368,-4.4212 -0.3519,-1.8606 -1.24825,-3.7751 -0.78392,-5.6719 0.99753,-2.8601 2.96503,-0.03 3.39321,1.5479 1.05385,2.2306 2.99613,0.4085 3.05562,-1.3269 0.94464,-2.8091 4.17344,-2.0998 4.88966,0.3857 1.44191,2.0009 4.26857,3.2072 6.60928,2.2599 1.27085,-1.8482 -0.57984,-4.2016 -0.37459,-6.3003 -0.27837,-3.0053 0.74234,-6.1326 2.95114,-8.2035 2.5135,-3.1714 6.29474,-6.1187 10.52894,-5.6283 4.32042,1.05 7.51183,4.9721 8.53241,9.2306 0.77292,2.4204 4.58342,2.2386 5.47397,3.8717 -0.77687,0.3414 -4.20037,-1.4731 -2.30631,0.093 2.5398,1.5351 -1.52376,0.3512 -2.13805,-0.5579 -1.59347,-1.3411 -2.08951,-3.4601 -2.51252,-5.3898 -1.50498,-2.8517 -3.86939,-5.6881 -7.12134,-6.4051 -3.72943,-0.5168 -7.28311,1.8716 -9.46644,4.7406 -1.75112,2.3482 -3.51224,5.0269 -2.8702,8.1239 0.10489,2.0714 -0.31359,5.2191 1.89302,6.1976 0.27658,0.8256 -1.95111,2.8593 -2.7091,4.0702 1.2182,0.182 1.79759,2.1212 3.07525,1.3117 -1.1942,1.8797 -3.61144,-0.5287 -4.82942,1.3797 -0.65176,0.3504 -1.6192,2.3206 -2.42368,1.3881 z m -9.51785,-2.1694 c -0.0382,-2.6932 -0.58202,-5.4908 -1.76964,-7.8926 -2.37335,-1.8025 -1.91995,1.6604 -1.25555,3.0056 0.51532,1.9624 1.08195,3.9868 2.35377,5.6037 0.40111,0.038 0.58856,-0.3998 0.67142,-0.7167 z m 7.36851,-1.5924 c 1.36288,-2.4008 0.25665,-5.7008 -1.76377,-7.3135 -2.38615,-0.9192 -3.34388,2.3668 -2.6984,4.1665 0.53756,1.5337 2.61424,5.6282 4.46217,3.147 z m 11.2263,3.9817 c 0.54317,-1.7999 2.90447,0.2478 0.6062,0.3444 -0.2319,0.031 -0.59497,-0.032 -0.6062,-0.3444 z m 0.77668,-2.0371 c 0.21597,-1.6601 3.37298,0.01 1.06964,0.2678 -0.33719,0.1951 -0.95968,0.2291 -1.06964,-0.2678 z m -0.0349,-1.5567 c 1.61697,-2.0404 0.75738,1.3833 0,0 z m -1.71205,-3.2262 c -0.48522,-2.1105 4.44325,0.4009 1.65574,0.3941 -0.55221,0.3081 -1.2795,0.092 -1.65574,-0.3941 z m 18.81328,-0.9561 c 0.67685,-0.3905 4.23906,-1.181 2.807,0.042 -0.9211,0.1971 -1.89788,0.2408 -2.807,-0.042 z m -9.43658,-0.8677 c -2.62657,-0.7822 -5.38518,0.3594 -8.04218,-0.1679 -0.94037,0.048 -2.30138,-1.1989 -0.50161,-1.0115 2.46129,0.334 5.30878,1.0739 7.58063,-0.2538 1.38719,-2.0934 -1.76199,-4.2749 -0.686,-6.4813 1.97495,0.6168 1.29023,3.9467 2.1996,5.6285 0.57959,0.4432 0.39604,3.827 -0.55044,2.286 z m 10.87886,-0.9266 c 1.87726,-0.8713 4.00811,-1.346 6.07395,-1.2406 -1.9243,0.782 -3.99182,1.2803 -6.07395,1.2406 z m -0.58722,-1.8624 c 1.59035,-0.5954 -0.0582,1.007 0,8e-4 l 0,-8e-4 z m 3.05969,-0.9082 c 0.64793,-0.7221 3.54094,-0.6293 1.37614,0.2077 -0.63345,0.4911 -3.62617,0.6069 -1.37614,-0.2077 z m -2.5961,-0.581 c 1.30456,-0.6264 1.71641,0.9186 0,0 z"
       inkscape:connector-curvature="0" />
  </g>
  <g
     inkscape:groupmode="layer"
     id="layer1"
     inkscape:label="Surround">
    <path
       style="fill:#000000"
       d="m 16.773809,51.883532 c -5.742341,-2.3142 -11.8422814,-7.86523 -14.8834613,-13.54414 -3.02082,-5.6409 -3.02059,-17.34144 4.5e-4,-23.04495 10.7237703,-20.2456701 38.8818113,-20.2965101 49.5765613,-0.0895 3.08974,5.83786 3.08974,17.43104 0,23.2689 -4.88884,9.23712 -12.95988,14.45137 -23.26545,15.03049 -4.82254,0.271 -7.7718,-0.14728 -11.4281,-1.6208 z m 22.07424,-5.62879 c 9.6383,-5.9589 13.8419,-18.06349 9.54702,-27.49135 -8.25192,-18.11405999 -31.42167,-20.0469701 -41.6667213,-3.47598 -2.5658001,4.15007 -3.02644,5.89641 -3.02644,11.47356 0,5.37794 0.5025399,7.43331 2.75386,11.26307 6.7175203,11.42734 21.2494113,15.11981 32.3922813,8.2307 z"
       id="path3860"
       inkscape:connector-curvature="0" />
  </g>
</svg>
